# xmcd
#
# Track frame offsets:
#	150
#	10907
#	23807
#	33932
#	45860
#	59735
#	71962
#	83885
#	96187
#	109237
#	121690
#	134740
#	148240
#	163540
#	176740
#
# Disc length: 2567 seconds
#
# Revision: 0
# Processed by: cddbd v1.5PL3 Copyright (c) Steve Scherf et al.
# Submitted via: audiograbber 1.83.01
#
DISCID=d30a050f
DTITLE=Los Huracanes del Norte - Exitos, Vol. 3
DYEAR=1995
DGENRE=Latin
TTITLE0=Entre Pase y Pase
TTITLE1=Regreso el Vaquero
TTITLE2=Cerveza
TTITLE3=Clave Privada
TTITLE4=Muchos Casos de Vino
TTITLE5=Informe del Dea
TTITLE6=Tres Sinaloenses
TTITLE7=Coqueta
TTITLE8=Que Bonito
TTITLE9=Compadre
TTITLE10=Ornelas
TTITLE11=Consejo de un Padre
TTITLE12=30 Dias
TTITLE13=Sesenta Mil Nuevos Pesos
TTITLE14=Profeta
EXTD=
EXTT0=
EXTT1=
EXTT2=
EXTT3=
EXTT4=
EXTT5=
EXTT6=
EXTT7=
EXTT8=
EXTT9=
EXTT10=
EXTT11=
EXTT12=
EXTT13=
EXTT14=
PLAYORDER=
